<svg xmlns="http://www.w3.org/2000/svg" xmlns:xlink="http://www.w3.org/1999/xlink" width="242" height="47" viewBox="0 0 242 47"><defs><style>.a,.d{fill:#fff;}.a{stroke:#f4f4f4;stroke-width:0.9px;}.a,.e{stroke-miterlimit:10;}.b{clip-path:url(#c);}.c{fill:url(#d);}.d,.e{opacity:0.199;}.e{fill:none;stroke:#fff;stroke-width:0.544px;}.f{filter:url(#k);}.g{filter:url(#h);}.h{filter:url(#e);}.i{filter:url(#a);}</style><filter id="a" x="-6" y="-4" width="254" height="59" filterUnits="userSpaceOnUse"><feOffset dy="2" input="SourceAlpha"/><feGaussianBlur stdDeviation="2" result="b"/><feFlood flood-color="#ffdfea" flood-opacity="0.573"/><feComposite operator="in" in2="b"/><feComposite in="SourceGraphic"/></filter><clipPath id="c"><g class="i" transform="matrix(1, 0, 0, 1, 0, 0)"><path class="a" d="M9,0H233a9,9,0,0,1,9,9V47a0,0,0,0,1,0,0H0a0,0,0,0,1,0,0V9A9,9,0,0,1,9,0Z" transform="translate(0.5 0.5)"/></g></clipPath><linearGradient id="d" x2="0.97" y2="1" gradientUnits="objectBoundingBox"><stop offset="0" stop-color="#c440a0"/><stop offset="1" stop-color="#58a5ff"/></linearGradient><filter id="e" x="-111.295" y="-106.303" width="379.588" height="488.702" filterUnits="userSpaceOnUse"><feOffset dy="1" input="SourceAlpha"/><feGaussianBlur stdDeviation="8.5" result="f"/><feFlood flood-color="#fff" flood-opacity="0.953" result="g"/><feComposite operator="out" in="SourceGraphic" in2="f"/><feComposite operator="in" in="g"/><feComposite operator="in" in2="SourceGraphic"/></filter><filter id="h" x="-76.873" y="-209.915" width="420.737" height="519.926" filterUnits="userSpaceOnUse"><feOffset dy="1" input="SourceAlpha"/><feGaussianBlur stdDeviation="8.5" result="i"/><feFlood flood-color="#fff" flood-opacity="0.953" result="j"/><feComposite operator="out" in="SourceGraphic" in2="i"/><feComposite operator="in" in="j"/><feComposite operator="in" in2="SourceGraphic"/></filter><filter id="k" x="-74.295" y="-32.303" width="316.586" height="406.702" filterUnits="userSpaceOnUse"><feOffset dy="1" input="SourceAlpha"/><feGaussianBlur stdDeviation="8.5" result="l"/><feFlood flood-color="#fff" flood-opacity="0.953" result="m"/><feComposite operator="out" in="SourceGraphic" in2="l"/><feComposite operator="in" in="m"/><feComposite operator="in" in2="SourceGraphic"/></filter></defs><g class="b" transform="translate(-0.5 -0.5)"><rect class="c" width="269" height="46" transform="translate(-6.5 1.5)"/><g data-type="innerShadowGroup"><g class="h" transform="matrix(1, 0, 0, 1, 0.5, 0.5)"><path class="d" d="M0,332.766,40.81,0s69.319,8.521,104.11,69.094,59.116,91.713,119.673,56.935S389.7,138.658,377.5,238.107L346.857,488Z" transform="translate(-111 -106)"/></g><path class="e" d="M0,332.766,40.81,0s69.319,8.521,104.11,69.094,59.116,91.713,119.673,56.935S389.7,138.658,377.5,238.107L346.857,488Z" transform="translate(-110.5 -105.5)"/></g><g data-type="innerShadowGroup"><g class="g" transform="matrix(1, 0, 0, 1, 0.5, 0.5)"><path class="d" d="M0,332.766,40.81,0s69.319,8.521,104.11,69.094,59.116,91.713,119.673,56.935S389.7,138.658,377.5,238.107L346.857,488Z" transform="matrix(1, 0.09, -0.09, 1, -34.01, -209.59)"/></g><path class="e" d="M0,332.766,40.81,0s69.319,8.521,104.11,69.094,59.116,91.713,119.673,56.935S389.7,138.658,377.5,238.107L346.857,488Z" transform="matrix(0.996, 0.087, -0.087, 0.996, -33.513, -209.088)"/></g><g data-type="innerShadowGroup"><g class="f" transform="matrix(1, 0, 0, 1, 0.5, 0.5)"><path class="d" d="M0,276.873,34.055,0S91.849,7.084,120.85,57.479s49.28,76.3,99.772,47.361,104.306,10.5,94.128,93.241L289.176,406Z" transform="translate(-74 -32)"/></g><path class="e" d="M0,276.873,34.055,0S91.849,7.084,120.85,57.479s49.28,76.3,99.772,47.361,104.306,10.5,94.128,93.241L289.176,406Z" transform="translate(-73.5 -31.5)"/></g></g></svg>