<svg xmlns="http://www.w3.org/2000/svg" xmlns:xlink="http://www.w3.org/1999/xlink" width="253" height="62" viewBox="0 0 253 62"><defs><style>.a{fill:url(#a);}.b{clip-path:url(#g);}.c{fill:#fff;}.c,.d{opacity:0.199;}.d{fill:none;stroke:#fff;stroke-miterlimit:10;stroke-width:0.544px;}.e{filter:url(#n);}.f{filter:url(#k);}.g{filter:url(#h);}.h{filter:url(#e);}.i{filter:url(#b);}</style><linearGradient id="a" x1="0.168" x2="0.924" y2="0.795" gradientUnits="objectBoundingBox"><stop offset="0" stop-color="#dd5282"/><stop offset="1" stop-color="#fb7972"/></linearGradient><filter id="b" x="0" y="0" width="253" height="62" filterUnits="userSpaceOnUse"><feOffset dy="2" input="SourceAlpha"/><feGaussianBlur stdDeviation="2" result="c"/><feFlood flood-color="#ffdfea" flood-opacity="0.573"/><feComposite operator="in" in2="c"/><feComposite in="SourceGraphic"/></filter><filter id="e" x="0" y="0" width="253" height="62" filterUnits="userSpaceOnUse"><feOffset dy="2" input="SourceAlpha"/><feGaussianBlur stdDeviation="2" result="f"/><feFlood flood-color="#ffdfea" flood-opacity="0.573"/><feComposite operator="in" in2="f"/><feComposite in="SourceGraphic"/></filter><clipPath id="g"><g class="i" transform="matrix(1, 0, 0, 1, 0, 0)"><path class="a" d="M8,0H233a8,8,0,0,1,8,8V50a0,0,0,0,1,0,0H0a0,0,0,0,1,0,0V8A8,8,0,0,1,8,0Z"/></g></clipPath><filter id="h" x="-113.295" y="-102.303" width="379.588" height="488.702" filterUnits="userSpaceOnUse"><feOffset dy="1" input="SourceAlpha"/><feGaussianBlur stdDeviation="8.5" result="i"/><feFlood flood-color="#fff" flood-opacity="0.953" result="j"/><feComposite operator="out" in="SourceGraphic" in2="i"/><feComposite operator="in" in="j"/><feComposite operator="in" in2="SourceGraphic"/></filter><filter id="k" x="-78.873" y="-205.915" width="420.737" height="519.926" filterUnits="userSpaceOnUse"><feOffset dy="1" input="SourceAlpha"/><feGaussianBlur stdDeviation="8.5" result="l"/><feFlood flood-color="#fff" flood-opacity="0.953" result="m"/><feComposite operator="out" in="SourceGraphic" in2="l"/><feComposite operator="in" in="m"/><feComposite operator="in" in2="SourceGraphic"/></filter><filter id="n" x="-76.295" y="-28.303" width="316.586" height="406.702" filterUnits="userSpaceOnUse"><feOffset dy="1" input="SourceAlpha"/><feGaussianBlur stdDeviation="8.5" result="o"/><feFlood flood-color="#fff" flood-opacity="0.953" result="p"/><feComposite operator="out" in="SourceGraphic" in2="o"/><feComposite operator="in" in="p"/><feComposite operator="in" in2="SourceGraphic"/></filter></defs><g transform="translate(6 4)"><g class="h" transform="matrix(1, 0, 0, 1, -6, -4)"><path class="a" d="M8,0H233a8,8,0,0,1,8,8V50a0,0,0,0,1,0,0H0a0,0,0,0,1,0,0V8A8,8,0,0,1,8,0Z" transform="translate(6 4)"/></g><g class="b"><g data-type="innerShadowGroup"><g class="g" transform="matrix(1, 0, 0, 1, -6, -4)"><path class="c" d="M0,332.766,40.81,0s69.319,8.521,104.11,69.094,59.116,91.713,119.673,56.935S389.7,138.658,377.5,238.107L346.857,488Z" transform="translate(-113 -102)"/></g><path class="d" d="M0,332.766,40.81,0s69.319,8.521,104.11,69.094,59.116,91.713,119.673,56.935S389.7,138.658,377.5,238.107L346.857,488Z" transform="translate(-119 -106)"/></g><g data-type="innerShadowGroup"><g class="f" transform="matrix(1, 0, 0, 1, -6, -4)"><path class="c" d="M0,332.766,40.81,0s69.319,8.521,104.11,69.094,59.116,91.713,119.673,56.935S389.7,138.658,377.5,238.107L346.857,488Z" transform="matrix(1, 0.09, -0.09, 1, -36.01, -205.59)"/></g><path class="d" d="M0,332.766,40.81,0s69.319,8.521,104.11,69.094,59.116,91.713,119.673,56.935S389.7,138.658,377.5,238.107L346.857,488Z" transform="matrix(0.996, 0.087, -0.087, 0.996, -42.013, -209.588)"/></g><g data-type="innerShadowGroup"><g class="e" transform="matrix(1, 0, 0, 1, -6, -4)"><path class="c" d="M0,276.873,34.055,0S91.849,7.084,120.85,57.479s49.28,76.3,99.772,47.361,104.306,10.5,94.128,93.241L289.176,406Z" transform="translate(-76 -28)"/></g><path class="d" d="M0,276.873,34.055,0S91.849,7.084,120.85,57.479s49.28,76.3,99.772,47.361,104.306,10.5,94.128,93.241L289.176,406Z" transform="translate(-82 -32)"/></g></g></g></svg>